<?xml version="1.0" encoding="UTF-8"?>
<svg id="Layer_2" data-name="Layer 2" xmlns="http://www.w3.org/2000/svg" viewBox="0 0 845.55 839.49">
  <defs>
    <style>
      .cls-1 {
        fill: #e1e0df;
      }

      .cls-2 {
        fill: #585858;
      }

      .cls-3 {
        fill: #e4e3e3;
      }

      .cls-4 {
        fill: #1e3038;
      }

      .cls-5 {
        fill: #8a8786;
      }

      .cls-6 {
        fill: #8b8b8b;
      }

      .cls-7 {
        fill: #c3c3c3;
      }

      .cls-8 {
        fill: #c1bfbe;
      }

      .cls-9 {
        fill: #fff;
      }

      .cls-10 {
        fill: #918d8d;
      }

      .cls-11 {
        fill: #b3b0b0;
      }

      .cls-12 {
        fill: #76bb88;
      }

      .cls-13 {
        fill: #82807f;
      }

      .cls-14 {
        fill: #969392;
      }

      .cls-15 {
        fill: #faec16;
      }

      .cls-16 {
        fill: #6d6867;
      }

      .cls-17 {
        fill: #696565;
      }

      .cls-18 {
        fill: #9d9b9b;
      }

      .cls-19 {
        fill: #dedbda;
      }

      .cls-20 {
        fill: #e5e5e4;
      }

      .cls-21 {
        fill: #bebbbb;
      }

      .cls-22 {
        fill: #817f7f;
      }

      .cls-23 {
        fill: #b5d44f;
      }

      .cls-24 {
        fill: #353535;
      }

      .cls-25 {
        fill: #d1cfce;
      }

      .cls-26 {
        fill: #c4c2c1;
      }

      .cls-27 {
        fill: #d2d2d2;
      }

      .cls-28 {
        fill: #118ccc;
      }

      .cls-29 {
        fill: #556c77;
      }

      .cls-30 {
        fill: #c2c0bf;
      }

      .cls-31 {
        fill: #e3232a;
      }

      .cls-32 {
        fill: #c5c4c4;
      }

      .cls-33 {
        fill: #414141;
      }

      .cls-34 {
        fill: #c6c3c2;
      }
    </style>
  </defs>
  <g id="Layer_4" data-name="Layer 4">
    <g>
      <path class="cls-8" d="M1.02,426.87c-.75-.93-.33-2.02-.45-3.04-.23-1.97.35-4.02-.56-5.93v-8.43c.84-.69.18-1.96,1.02-2.65.75.64.83,1.54.8,2.41-.17,4.99.2,9.98.03,14.97-.03.96,0,1.95-.83,2.67Z"/>
      <path class="cls-16" d="M423.56,0h21.07c.15.36.06.65-.27.85-.96.53-2.02.48-3.07.49-4.8.02-9.6.02-14.39,0-1.04,0-2.1.04-3.07-.48-.34-.21-.43-.49-.27-.85Z"/>
      <path class="cls-17" d="M424.62,839.49h-10.01c-.16-.34-.08-.61.23-.82,3.18-.77,6.36-.77,9.55,0,.31.21.39.49.23.83Z"/>
      <path class="cls-14" d="M423.56,0c0,.15-.02.3-.03.45-1.94,1.35-3.99.97-6.06.38-.32-.21-.39-.49-.23-.83h6.32Z"/>
      <path class="cls-21" d="M417.24,0c0,.15-.01.3-.02.45-1.77,1.32-3.65.96-5.54.38-.31-.21-.39-.48-.23-.83h5.8Z"/>
      <path class="cls-13" d="M845.55,418.43v4.22c-.3.17-.56.12-.77-.15-.61-1.3-.61-2.61,0-3.91.21-.27.47-.32.78-.15Z"/>
      <path class="cls-1" d="M411.45,0c0,.16,0,.32,0,.48-1.39,1.09-2.8,1.07-4.21.04,0-.17,0-.34,0-.52h4.21Z"/>
      <path class="cls-19" d="M404.6,839.49c0-.17,0-.33,0-.5,1.09-.98,2.28-.83,3.5-.3.29.21.36.48.19.8h-3.69Z"/>
      <path class="cls-3" d="M437.79,838.97c0,.17,0,.34,0,.51h-3.69c-.17-.32-.1-.58.19-.8,1.22-.53,2.4-.67,3.5.28Z"/>
      <path class="cls-34" d="M449.91,0c0,.17,0,.34,0,.51-.93.87-1.94.76-2.99.28-.28-.21-.34-.48-.18-.79h3.16Z"/>
      <path class="cls-11" d="M408.29,839.49c0-.15,0-.31-.02-.46.91-.94,1.93-.81,2.99-.33.29.21.35.48.18.79h-3.16Z"/>
      <path class="cls-5" d="M411.45,839.49c0-.15-.02-.3-.02-.45,1.05-.96,2.1-.96,3.16,0,.01.15.02.3.03.45h-3.16Z"/>
      <path class="cls-22" d="M424.62,839.49c0-.15,0-.3.02-.45.89-.94,1.91-.81,2.97-.34.29.21.34.47.18.79h-3.16Z"/>
      <path class="cls-18" d="M427.78,839.49c0-.15,0-.3.02-.45.89-.95,1.91-.81,2.97-.34.29.21.34.48.18.79h-3.16Z"/>
      <path class="cls-26" d="M430.94,839.49c0-.15,0-.3.02-.46,1.05-.95,2.1-.94,3.15-.01,0,.16,0,.31-.01.47h-3.16Z"/>
      <path class="cls-10" d="M446.74,0c0,.15,0,.31.02.46-.7.68-1.4.68-2.11,0-.02-.15-.03-.31-.02-.46h2.11Z"/>
      <path class="cls-25" d="M845.55,418.43l-.22-.05h-.23c-.51-.52-.52-1.04,0-1.55.15-.05.29-.04.44.02v1.58Z"/>
      <path class="cls-30" d="M845.09,422.67c.15,0,.31-.01.46-.03v1.58c-.26.18-.5.16-.71-.08-.26-.55-.27-1.05.25-1.47Z"/>
      <path class="cls-20" d="M845.11,424.24c.15.03.3.02.44-.02v1.58l-.22.02h-.22c-.52-.54-.52-1.06,0-1.59Z"/>
      <path d="M845.11,424.24c0,.52,0,1.05,0,1.57-1.11,15.67-2.16,31.35-3.36,47.01-.46,6.04-1.61,12-2.61,17.96-3.19,19.05-7.44,37.85-13.23,56.29-4.55,14.5-10.45,28.46-16.82,42.24-3.02,6.53-5.88,13.13-8.95,19.62-4.17,8.8-8.97,17.26-14.01,25.61-7.13,11.8-14.76,23.25-22.74,34.48-1.74,2.46-3.92,4.47-5.95,6.66-3.46,3.73-6.81,7.57-10.23,11.35-9.19,10.15-18.13,20.54-28.14,29.91-10.38,9.72-20.82,19.37-31.36,28.91-3.9,3.53-8.32,6.44-12.61,9.5-44.54,31.82-93.06,55.29-145.94,69.61-18.39,4.98-37.06,8.58-55.98,10.91-11.33,1.39-22.69,2.29-34.08,2.94-.44.03-.87.1-1.3.15-1.23-.22-2.45-.07-3.68.05-1.05-.2-2.1-.08-3.15.01-1.05-.19-2.11-.09-3.16,0-1.05,0-2.11,0-3.16,0-3.35,0-6.7,0-10.05,0-1.05-.07-2.11-.2-3.16,0-1.05-.09-2.1-.21-3.15-.01-1.22-.09-2.45-.27-3.68-.04-6.56-.5-13.12-.97-19.68-1.49-6.74-.53-13.4-1.72-20.11-2.47-3.49-.39-6.97-.83-10.49-.84-4.51-.02-8.85-1.2-13.23-2.1-16.59-3.41-33.02-7.41-49.15-12.6-28.49-9.18-55.62-21.33-81.41-36.56-21.98-12.98-42.74-27.61-62.28-43.99-2.69-2.25-5.27-4.64-7.85-7.02-4.25-3.93-8.4-7.98-12.7-11.86-4.25-3.84-8.17-7.97-11.79-12.39-8.51-10.4-17.67-20.23-26.43-30.41-1.15-1.33-2.22-2.71-3.2-4.17-8.65-12.9-17.29-25.81-26.01-38.67-3.21-4.73-6.08-9.65-8.57-14.78-3.37-6.94-6.86-13.82-10.61-20.58-3.96-7.14-6.79-14.83-9.88-22.37-10.24-25-17.47-50.89-22.8-77.35-2.46-12.23-3.75-24.62-5.38-36.97-1.56-11.8-1.25-23.65-2-35.47.27-3.39.1-6.78-.09-10.16-.18-3.31.11-6.6.09-9.89.48-4.02.34-8.07.51-12.1.48-11.23,1.24-22.45,3.32-33.51,2.56-13.62,5.24-27.22,8.11-40.77,2.71-12.8,6.95-25.17,11.04-37.58,10.97-33.32,27.15-64.03,46.31-93.29,12.14-18.55,25.58-36.08,40.67-52.32,4.12-4.44,8.37-8.76,12.42-13.26,2.41-2.68,5.02-5.15,7.87-7.38,1.1-.86,2.14-1.82,3.16-2.78,14.05-13.14,28.79-25.41,44.43-36.66,12.85-9.24,26.22-17.58,39.96-25.37,23.29-13.21,47.92-23.26,73.45-31.18,13.06-4.05,26.12-8.12,39.54-10.87,11.61-2.38,23.31-4.14,35.08-5.53,9.06-1.07,18.12-2.16,27.22-2.86,4.37-.34,8.75-.56,13.13-.83,1.4.23,2.81.09,4.21-.04,1.93.22,3.86.06,5.78-.03,2.1.22,4.21.06,6.31,0,4.7.03,9.39.06,14.09.07,2.35,0,4.69-.04,7.04-.06.7,0,1.41,0,2.11,0,1.05.08,2.09.29,3.14.05,9.51,1.02,19.02,1.98,28.52,3.08,16.14,1.88,32,5.24,47.78,9.04,38.37,9.24,74.53,24.02,108.91,43.26,18.04,10.1,34.64,22.32,50.82,35.15,5.17,4.09,10.08,8.46,14.9,12.94,13.23,12.32,26.56,24.55,38.7,37.99,8.07,8.93,15.23,18.6,22.94,27.84,3.27,3.91,6.21,8.03,8.88,12.39,3.94,6.43,8.19,12.67,12.27,19.02,3.89,6.06,7.35,12.35,10.65,18.75,2.53,4.9,5.2,9.74,7.64,14.69,3.83,7.78,8.05,15.43,10.93,23.6,4.72,13.39,10.58,26.35,14.55,40.01,3.52,12.13,6.36,24.43,9.16,36.74,2.8,12.27,4.36,24.69,5.83,37.15,1.64,13.88,2.23,27.82,2.53,41.78.02.96.12,1.93.19,2.89,0,.52,0,1.04,0,1.56,0,1.43,0,2.86-.01,4.29,0,.52.01,1.04.02,1.56Z"/>
      <path class="cls-9" d="M431.66,823.54c-27.92-.16-49.64-1.51-71.21-4.7-69.23-10.21-131.21-37.37-186.46-80.13-23.85-18.46-44.99-39.66-64.33-62.8-23.65-28.31-42.47-59.51-57.51-93.08-9.2-20.53-17.03-41.54-22.39-63.42-3.6-14.67-6.27-29.51-8.27-44.48-2.32-17.33-3.71-34.74-4.45-52.2-.52-12.21.12-24.4,1.25-36.57,2.03-21.98,6.04-43.62,11.43-65,13.47-53.4,37.23-101.82,70.5-145.62,5.2-6.85,10.42-13.69,15.95-20.29,1.87-2.23,4.08-4.1,6.07-6.21,3.73-3.97,7.59-7.81,11.37-11.73,42.45-44.03,92.38-76.51,149.96-97.19,21.08-7.57,42.52-13.83,64.59-17.82,12.61-2.28,25.32-3.87,38.09-4.97,11.46-.99,22.93-1.73,34.42-2.22,12.48-.53,24.92.02,37.35,1.08,22.17,1.87,43.99,5.81,65.55,11.21,57.71,14.46,109.28,41.13,155.46,78.42,9.49,7.66,18.53,15.89,27.06,24.63,8.1,8.3,16.13,16.65,23.99,25.17,8.48,9.18,15.82,19.26,23.07,29.41,28.13,39.34,48.82,82.29,62.02,128.82,5.06,17.83,8.52,36.01,10.99,54.39,2.67,19.88,3.9,39.84,3.56,59.89-.83,48.71-10.44,95.64-28.66,140.8-15.75,39.05-37.29,74.6-64.07,107.1-26.21,31.8-56.99,58.36-91.25,80.99-36.29,23.97-75.39,41.83-117.41,53.2-19,5.14-38.28,8.8-57.85,10.98-14.94,1.67-29.92,2.34-38.82,2.35Z"/>
      <path d="M423.11,816.26c-15.46-.19-30.16-1.14-44.81-3.02-42.1-5.39-82.59-16.57-121.55-33.4-26.99-11.65-51.84-26.84-74.81-45.14-8.73-6.95-16.7-14.78-25.04-22.17-6.11-5.42-12.12-10.95-18.23-16.36-4.42-3.91-8.55-8.1-12.3-12.63-11.6-13.99-22.97-28.16-33.4-43.07-13.44-19.2-24.06-39.92-33.42-61.36-11.83-27.11-20.76-55.1-26.2-84.19-2.26-12.08-4.13-24.21-5.51-36.42-1.38-12.21-2.71-24.43-3.32-36.71-.47-9.49-.09-18.96.55-28.43.73-10.78,2.08-21.48,3.82-32.14,3.45-21.16,8.32-41.98,15.1-62.31,22.2-66.55,59.09-123.57,110.89-171,32.87-30.1,69.7-54,110.29-72.17,27.24-12.19,55.73-20.52,85.01-26.11,10.87-2.08,21.88-3.1,32.92-3.89,10.24-.73,20.47-1.65,30.71-2.37,9.47-.67,18.96-.56,28.43-.06,10.52.55,21,1.66,31.42,3.16,15.28,2.21,30.43,5.14,45.42,8.84,19.08,4.7,37.86,10.38,56.05,17.87,42.59,17.55,80.94,41.88,115.46,72.29,10.42,9.18,19.69,19.54,29.25,29.59,19.06,20.03,34.4,42.78,48.39,66.49,17.48,29.62,30.86,60.97,39.63,94.26,3.64,13.84,6.31,27.87,8.32,42.04,2.6,18.27,4.21,36.62,5.14,55.04.62,12.12.27,24.24-.69,36.33-1.58,19.97-4.8,39.7-9.32,59.22-8.22,35.48-20.65,69.38-38.36,101.24-21.29,38.3-48.08,72.24-80.52,101.77-50.97,46.4-110.21,77.1-176.94,93.65-14.05,3.49-28.33,5.86-42.7,7.66-16.74,2.09-33.54,3.26-49.7,3.5Z"/>
      <path class="cls-9" d="M423.39,807.64c-67.47-.21-131.04-15.97-190.03-48.84-48.99-27.3-90.07-63.75-123.34-109.04-32.29-43.95-54.43-92.47-66.89-145.49-4.02-17.1-6.81-34.4-8.5-51.9-1.74-18.04-2.18-36.12-1.27-54.21,2.32-46.09,13.26-90.09,32.28-132.11,14.88-32.87,33.98-63.14,56.2-91.51,5.47-6.99,11.24-13.69,17.6-19.91,8.54-8.34,16.92-16.86,25.3-25.36,4.77-4.83,10.07-9.01,15.45-13.11,17.05-12.97,34.47-25.38,53.28-35.76,31.52-17.39,64.85-29.99,99.85-38.29,15.2-3.6,30.56-6.35,46.06-8.24,21.82-2.66,43.73-3.89,65.7-2.66,47.87,2.69,93.7,13.81,137.43,33.57,27.46,12.41,53.32,27.58,77.08,46.06,52.46,40.82,93.36,90.94,120.35,152,12.64,28.59,21.68,58.29,27.31,89.05,5.19,28.36,7.2,56.94,6.03,85.73-1.39,34.49-7.74,68.11-18.57,100.86-6.55,19.83-13.98,39.31-23.86,57.78-16.68,31.2-36.89,59.92-60.73,86.03-17.82,19.52-37.86,36.51-59.21,52.11-40.63,29.69-85.36,50.29-134.17,62.2-15.18,3.7-30.54,6.37-46.07,8.22-15.71,1.87-31.48,2.7-47.29,2.8Z"/>
      <path class="cls-31" d="M613.58,355.19c1.05.04,2.1.11,3.15.1,40.39-.19,80.77-.4,121.16-.59,4.01-.02,3.36-.61,3.59,3.49.28,4.91.04,9.83-.01,14.75-.15,14.75-.94,29.49-.78,44.25.03,2.46-.06,4.91-.41,7.36-.18,1.27-.75,1.81-1.98,2-1.66.25-3.32.28-4.99.34-15.8.58-31.6.42-47.4.2-2.19-.03-4.39.03-6.58-.08-1.39-.07-2.01.46-2.36,1.81-1.55,5.94-3.38,11.8-5.32,17.63-3.27,9.83-6.89,19.52-11.31,28.89-2.92,6.2-6.05,12.27-10.02,17.89-2.29,3.24-2.21,4.3.01,7.59,1.88,2.78,4.11,5.26,6.44,7.64,7.25,7.4,14.5,14.81,22.55,21.37,2.65,2.16,4.92,4.77,7.81,6.66,1.78,1.17,1.84,2.9,1.28,4.68-.65,2.1-1.67,4.05-2.75,5.96-3.91,6.92-8.82,13.11-14.25,18.87-6.69,7.09-13.63,13.93-20.78,20.55-8.89,8.23-17.73,16.52-26.23,25.17-3.15,3.2-6.07,6.58-8.57,10.32-1.17,1.75-2.45,3.43-3.75,5.08-2.32,2.93-2.35,2.93-5.86,1.44-3.32-1.41-6.41-3.26-9.37-5.32-6.95-4.82-13.23-10.43-19.21-16.39-5.59-5.58-11.19-11.17-16.67-16.86-1.37-1.42-2.53-1.66-4.36-.97-4.53,1.7-8.97,3.61-13.13,6.04-13.19,7.72-27.25,13.25-41.95,17.29-4.31,1.19-8.53,2.68-12.71,4.27-1.52.58-2.07,1.46-2.13,3.11-.27,8.08-.33,16.15-.45,24.23-.13,9.31-.35,18.61-.6,27.92-.06,2.45-.29,4.91-.55,7.35-.2,1.86-.41,2.04-2.3,2.13-2.98.13-5.97.29-8.95.23-19.49-.43-38.98-.08-58.47.21-10.09.15-20.19.05-30.29.1-7.2.03-14.39-.29-21.59-.57-2.52-.1-2.52-.12-2.56-2.71-.25-18.88-.49-37.76-.74-56.64-.06-4.25-.05-4.29-4.04-5.7-9.01-3.18-18.19-5.87-27.16-9.18-10.13-3.75-20.03-8-29.48-13.26-2.99-1.66-6.05-3.18-9.18-4.57-1.8-.8-3.08-.66-4.65.82-13.18,12.39-26.46,24.66-39.72,36.97q-2,1.86-4.43.57c-4.68-2.47-8.98-5.47-12.88-9.06-6.98-6.42-14.17-12.62-20.98-19.21-11.1-10.75-22.05-21.66-32.46-33.09-4.49-4.94-8.9-9.94-13.26-14.99-2.84-3.29-3-6.48-1.09-10.13,4.12-7.87,9.62-14.68,16.02-20.76,5.86-5.56,11.82-11.01,17.45-16.81.31-.32.63-.62.93-.93,2.69-2.79,3.01-3.95,1.31-7.52-3.02-6.33-6.16-12.61-9.34-18.87-7.58-14.92-13.66-30.39-17.35-46.75-.55-2.45-.6-2.46-3.05-2.5-13.34-.24-26.68-.47-40.03-.72-6.58-.12-13.17-.28-19.75-.43-2.11-.05-2.14-.06-2.15-2.23-.05-9.75.42-19.49.71-29.23.17-5.7.52-11.4.72-17.11.24-6.76.66-13.5,1.17-20.25.2-2.68.22-2.7,2.97-2.73,27.65-.27,55.31-.52,82.96-.8,18.79-.19,37.57-.4,56.36-.6,1.67,1.06.83,2.25.08,3.3-1.63,2.29-3.07,4.7-4.56,7.09-2.51,4.02-4,8.29-3.91,13.16.33,18.21,4.38,35.67,10.53,52.68,7.16,19.83,18.49,37.18,32.18,53.07,21.88,25.37,48.87,43.2,80.33,54.48,14.45,5.18,29.29,8.57,44.56,10.05,10.24.99,20.47.57,30.7-.34,13.53-1.2,26.75-3.83,39.62-8.1,22.61-7.51,42.76-19.41,61.01-34.62,20.1-16.75,36.08-36.8,47.72-60.23,8.59-17.3,13.76-35.66,16.1-54.82,1.05-8.63,1.74-17.27,1.53-25.97-.03-1.14.06-2.28.26-3.41.69-3.98.73-4.02,4.86-4.31.94-.13,1.91-.58,2.77.25Z"/>
      <path class="cls-28" d="M611.2,355.42c-.08.03-.16.08-.25.08-4.04.39-4.09.39-4.34,4.45-.15,2.45-.13,4.92-.18,7.37-.47,20.68-3.77,40.84-10.89,60.33-7.47,20.45-18.59,38.74-32.91,55.05-23.12,26.34-51.03,45.66-84.45,56.66-12.54,4.13-25.43,6.6-38.6,7.76-10.26.9-20.51,1.19-30.77.27-15.19-1.36-29.94-4.76-44.29-9.91-21.5-7.71-41.36-18.39-58.87-33.14-21.78-18.36-39.16-40.17-50.86-66.29-6.24-13.94-10.18-28.55-12.5-43.62-.79-5.12-1.47-10.24-1.73-15.43-.29-5.71.92-10.99,4-15.81,1.61-2.51,3.27-4.99,4.91-7.49.57-.87,1.38-1.72.32-2.78,1.21-1.67,2.95-2.74,4.54-3.97,3.19-2.49,6.07-5.31,9.1-7.96,11.41-9.98,18.12-23.1,24.73-36.29,4.32-8.62,8.35-17.4,12.62-26.05,5.23-10.58,12.03-19.98,21.12-27.61,5.47-4.59,11.49-8.37,17.79-11.68,6.44-3.39,12.94-6.68,19.42-9.98,10.16-5.17,19.25-11.88,27.83-19.31,3.46-3,6.07-6.81,8.78-10.47,3.29-4.44,6.4-9.02,9.57-13.54,1.91-2.73,3.83-5.46,6.15-7.87.15-.22.34-.4.48-.62v.04c.41-.47.72-1.04,1.23-1.44,5.35-7.18,13.11-10.28,21.42-11.72,21.35-3.7,40.71,1.54,58.14,14.18,14.01,10.17,25.02,23.26,35.01,37.2,13.9,19.4,28.05,38.61,42.93,57.28,14.16,17.77,26.43,36.76,34.71,58.09,2.61,6.72,4.98,13.5,6.11,20.66.19,1.22.5,2.43-.3,3.56Z"/>
      <path d="M234,178.21c-.19.8-.67,1.44-1.25,1.97-4.79,4.38-8.7,9.6-13.32,14.15-1.35,1.33-2.65,2.72-4.47,3.8-.24-1.41.57-2.19,1.18-2.97,1.54-1.96,1.4-3.87.01-5.78-.72-.99-1.46-2-2.35-2.82-9.4-8.66-18.83-17.28-28.25-25.92-.38-.06-.68-.26-.93-.53-.28-.21.07-.38-.18-.13s-.04-.09.12.22c.16.31-.25.23.11.23.06.47-.18.97.21,1.38,1.85,5.2,4.31,10.15,6.59,15.17,3.9,8.62,8.02,17.14,11.6,25.9.78,1.93,1.7,3.83,1.91,6.16-1.14.06-2.08-.36-3.03-.64-9.66-2.89-18.93-6.86-28.31-10.5-5.22-2.03-10.41-4.14-15.78-5.77-.58-.18-1.19-.27-1.79-.4-.46-.06-.95-.45-1.35.12,1.42,1.43,2.81,2.88,4.26,4.27,7.46,7.18,14.95,14.34,22.4,21.53,1.47,1.41,3.06,2.63,4.88,3.54,1.91.95,3.66.88,5.37-.57,1.57-1.32,1.63-1.24,3.2-1.2.17,1.14-.65,1.76-1.33,2.39-3.87,3.56-6.53,8.4-11.37,11.16-.52-1.2.15-1.8.58-2.38,1.76-2.4,1.37-4.78-.04-7.13-.95-1.59-2.14-3.02-3.56-4.21-8.34-7.01-15.7-15.07-23.89-22.25-1.45-1.27-2.85-2.61-4.5-3.63-2.52-1.55-3.6-1.46-5.91.38-.55.44-1.12.84-1.7,1.22-.18.12-.43.3-.83-.02.19-1.18,1.03-2.09,1.79-2.97,3.85-4.45,7.86-8.74,11.9-13.02,1.01-1.07,1.83-.63,2.8-.28,10.96,3.96,21.91,7.92,32.88,11.85.79.28,1.54.82,2.63.64-.36-2.19-1.35-4.12-2.26-6.05-3.49-7.46-7.02-14.9-10.52-22.36-.67-1.43-1.26-2.89-1.85-4.35-.88-2.19-.36-4.12,1.17-5.84.35-.39.69-.8,1.07-1.16,2.86-2.73,5.51-5.65,8.18-8.57,1.29-1.41,2.62-2.78,4.63-3.63-.01,1.23-.68,1.94-1.18,2.71-2.33,3.6-2.28,4.74.94,7.7,5.23,4.82,10.07,10.04,15.39,14.76,4.46,3.96,8.78,8.09,13.18,12.12,1.1,1.01,2.24,1.98,3.44,2.85,1.73,1.26,2.25,1.21,3.95-.06.91-.68,1.76-1.45,2.88-1.81.6-.12.84.11.71.71Z"/>
      <path d="M360.26,726.66c-1.67,1.45-2.9,3.27-4.25,4.99-7.14,9.12-13.87,18.56-21.27,27.48-1.9,2.29-3.76,4.62-6.21,6.56-.73-.61-.75-1.38-.88-2.12-1.48-8.11-2.5-16.29-3.64-24.46-1.13-8.08-2.21-16.16-3.32-24.24-.02-.13-.17-.24-.36-.49-.7.77-.82,1.72-1.1,2.58-2.26,6.92-3.83,14.03-5.81,21.03-1.33,4.72-3.18,9.3-3.88,14.19-.12.87-.22,1.74-.22,2.62,0,2.3.98,4.05,3.09,5.09.78.39,1.63.66,2.48,1.61-2.18.61-4.02-.29-5.87-.65-2.06-.4-4.1-.94-6.13-1.49-1.91-.52-3.88-.93-5.69-2.28,1.5-.82,2.88-.82,4.24-.73,1.74.12,2.81-.72,3.56-2.16,1.1-2.11,1.81-4.37,2.5-6.63,3.3-10.81,6-21.79,8.87-32.73.22-.84.33-1.72.45-2.59.48-3.31.04-4.1-3.08-5.37-.82-.34-1.64-.63-2.08-1.5.59-.73,1.4-.63,2.17-.55.78.08,1.59.16,2.33.41,4.9,1.67,9.88,3.04,14.9,4.25,1.5.36,2.12,1.2,2.31,2.71,1.42,10.87,2.9,21.73,4.36,32.6.15,1.13.36,2.25.56,3.47,1.28-.23,1.88-1.26,2.6-2.07,3.38-3.81,6.37-7.94,9.42-12.01,3.48-4.63,6.99-9.24,10.42-13.9.96-1.31,2.11-1.68,3.64-1.37,5.85,1.17,11.61,2.66,17.2,4.77.62.23,1.33.41,1.85,1.29-1.29.49-2.47.17-3.63.1-2.65-.15-3.39.26-4.36,2.79-1.96,5.08-3.33,10.34-4.73,15.59-2.15,8.04-4.26,16.09-6.38,24.14-.18.68-.29,1.37-.37,2.07-.38,3.56-.19,3.86,3.08,5.36.48.22.95.46,1.39.74.29.18.51.47.76.7-.54.65-1.1.76-1.88.54-7.14-2.09-14.5-3.38-21.56-5.81-1.16-.4-2.28-.86-3.5-2.04,1.64-.38,2.99-.2,4.32-.2,2.69,0,3.26-.23,4.02-2.78,1.45-4.87,2.74-9.79,4.07-14.69,2.02-7.44,4.01-14.89,6-22.34.11-.42.14-.86.2-1.29.23-.64.57-1.34-.65-1.17Z"/>
      <path d="M611.2,355.42c-.62-8.24-3.4-15.9-6.27-23.53-6.25-16.63-15.35-31.69-25.58-46.11-8.48-11.96-17.9-23.2-26.86-34.78-5.69-7.36-11.06-14.95-16.38-22.57-9.44-13.53-19.28-26.76-31.05-38.44-11.88-11.79-25.42-20.63-42.01-24.21-10.86-2.34-21.71-2.84-32.5.28-6.23,1.8-11.97,4.54-16.3,9.62-.34.39-.79.68-1.19,1.02-.27-.24-.31-.52-.13-.83,5.32-8.89,13.28-14.06,23.26-16.15,17.67-3.72,34.32-.79,49.99,8.05,8.08,4.56,15.08,10.5,21.83,16.82,13.01,12.21,23.6,26.41,33.98,40.79,11.14,15.44,21.75,31.25,33.29,46.4,2.39,3.14,4.85,6.23,7.27,9.35,9.66,12.45,18.22,25.57,24.06,40.29,4.3,10.84,7,22.04,6.98,33.79-.79.07-1.58.15-2.38.22Z"/>
      <path d="M649.91,214.43c1.49.26,2.14,1.12,2.87,1.87,1.99,2.05,3.03,2.24,5.56.84,1.61-.89,3.19-1.85,4.69-2.92,8.72-6.22,17.41-12.46,26.09-18.73,1.92-1.39,3.78-2.87,5.43-4.58,1.99-2.06,2.08-2.78.83-5.32-.35-.71-.68-1.42-.95-2.16-.14-.38-.35-.93.18-1.14.41-.17.86.07,1.15.44.16.21.31.42.46.64,5.92,8.5,12.4,16.59,17.93,25.37,1.93,3.06,3.59,6.22,4.24,9.84,1.59,8.86-5.33,17.12-14.24,16.95-2.34-.04-4.46-.77-6.48-1.94-1.28-.74-2.47-1.68-4.13-1.99-1.92,7.57-5.11,14.68-7.47,22.08-.67,2.09-1.28,4.18-.76,6.44.2.89.23,1.88-.06,2.78-1.28.2-1.91-.59-2.47-1.35-2.24-3.04-4.43-6.11-6.63-9.18-1.26-1.76-1.56-3.63-.87-5.73,2.16-6.58,4.35-13.14,6.75-19.64.51-1.4,1.05-2.79,1.49-4.21.61-1.96.22-3.79-.84-5.62-2.73,1.29-5.06,2.99-7.44,4.59-2.77,1.86-5.49,3.8-7.98,6.03-2.81,2.51-3.04,3.82-1.36,7.12.32.62.63,1.25.99,1.98-1.11.68-1.85.24-2.39-.63-3.89-6.17-8.72-11.67-12.6-17.85-.73-1.16-1.57-2.28-1.97-3.97Z"/>
      <path d="M557.99,693.48c-.28-.65.13-.93.39-1.25.57-.69,1.34-1.12,2.14-1.49,6.7-3.16,12.42-8.19,19.93-10.58-.41,1.51-1.39,2.12-2.13,2.89-1.69,1.75-1.7,2.7,0,4.46.43.44.91.82,1.38,1.22,6.45,5.42,12.9,10.85,19.36,16.26,1.12.94,2.26,1.89,3.9,2.24-.17-4.12-.83-8.01-1.44-11.89-.79-5.03-1.69-10.03-2.55-15.05-.06-.35-.12-.69-.19-1.03-1.06-4.61-1.11-4.65-5.88-4.63-.52,0-1.05-.05-1.59-.08,1.12-2.5,7.51-6.24,11.48-6.74.38.18.18.49.07.66-1.97,3.24-1.64,6.74-1.07,10.23,1.76,10.91,3.62,21.81,5.35,32.72.7,4.42,1.19,8.87,1.72,13.31.13,1.12.25,2.27-.03,3.5-2.24-.2-3.86-1.55-5.46-2.88-2.97-2.47-5.87-5.02-8.83-7.51-3.9-3.27-7.82-6.52-11.76-9.75-1.07-.88-2.14-1.78-3.78-2.56-.19,2.44-.18,4.67.13,6.87.85,6.08,1.81,12.15,2.71,18.22.52,3.47,1.04,6.95.86,10.48-.03.65.23,1.5-.58,1.87-.81.36-1.53-.03-2.17-.54-.27-.22-.55-.43-.83-.65-12.21-9.76-24.45-19.46-36.59-29.31-3.03-2.46-6.16-4.32-10.11-4.27-.41-.84.21-1.2.57-1.64.22-.27.48-.54.77-.71,5.76-3.33,11.55-6.61,17.51-9.57.31-.15.67-.2,1.05.02.07,1.07-.75,1.62-1.36,2.31-1.23,1.38-1.29,1.7-.16,3.17.91,1.18,1.95,2.26,3.02,3.29,2.98,2.86,6.22,5.42,9.48,7.96,3.39,2.65,6.78,5.3,10.18,7.93,1.16.9,2.34,1.8,4.09,2.65-.08-1.65-.1-3-.21-4.34-.41-5.07-.89-10.14-2.06-15.11-.46-1.97-1.41-3.55-3.04-4.75-1.84-1.35-3.65-2.74-5.45-4.14-1.97-1.53-4.14-2.22-6.64-1.81-.73.12-1.5.02-2.2.02Z"/>
      <path d="M266.44,96.68c6.1-3.88,12.27-7.15,18.95-9.61.33,1.39-.51,1.86-1.17,2.37-1.21.95-2.07,2.15-2.71,3.51-3.17,6.74-6.34,13.49-9.46,20.25-.81,1.75-2.03,3.76-1.58,5.45.48,1.83,3.07,1.92,4.76,2.69,7.57,3.47,15.18,6.85,22.75,10.31,4.53,2.08,9.13,3.64,14.22,2.79.24-.04.5.05.83.1,0,1.32-.96,1.86-1.87,2.31-7.7,3.79-15.42,7.55-23.22,11.35-.4-.8-.23-1.25.41-1.78,1.95-1.64,1.95-3.18.01-4.7-.82-.64-1.76-1.16-2.71-1.6-5.24-2.44-10.5-4.85-15.77-7.24-1.03-.47-2.11-.86-3.2-1.18-.72-.21-1.51-.67-2.24,0-.76.7-.25,1.47-.05,2.2.16.59.37,1.17.62,1.73,1.91,4.24,3.98,8.4,6.25,12.45.47.84,1.01,1.65,1.61,2.4,1.53,1.91,2.1,2.04,4.54,1.3.67-.2,1.35-.36,2.04-.49.23-.04.49.07.74.11.02,1.04-.84,1.34-1.44,1.74-7.01,4.56-14.53,8.12-22.24,11.28-.14.06-.33-.02-.73-.06.33-1.43,1.31-2.11,2.49-2.7,2.14-1.06,2.25-1.38,1.66-3.69-.55-2.13-1.44-4.14-2.37-6.12-5.11-10.87-10.82-21.44-16.19-32.19-.63-1.26-1.4-2.43-2.3-3.52-1.19-1.44-2.62-1.99-4.43-1.27-1.13.45-2.28.86-4.14.57,2.61-2.32,5.32-3.56,7.96-4.9,2.65-1.35,5.31-2.71,7.98-4.04,2.72-1.35,5.32-2.96,8.55-3.87-.22,1.17-.78,1.8-1.45,2.3-2.15,1.59-2.24,3.62-1.31,5.85.74,1.78,1.51,3.55,2.39,5.26,2.15,4.18,4.38,8.33,6.61,12.55.97-.58,1.39-1.32,1.74-2.12,3.04-6.99,6.37-13.86,9.09-20.99.75-1.97,1.43-3.97,1.73-6.06.31-2.1-.33-2.7-2.46-2.61-1.31.06-2.58.63-3.91.34-.24-.05-.45-.24-.96-.52Z"/>
      <path d="M178.08,670.76c1.63.4,2.6,1.17,3.55,1.92,1.4,1.11,2.7.99,4.07-.02,1.71-1.25,3.25-2.68,4.77-4.13,7.05-6.73,13.69-13.87,20.54-20.79,1.73-1.75,3.48-3.47,5.15-5.28,2.76-2.99,2.83-4.28.61-7.6-.38-.57-.91-1.08-.84-2.09,1.31.06,2.26.83,3.01,1.69,5.03,5.77,11.1,10.49,16.31,16.07,2.88,3.09,5.6,6.31,7.4,10.17,1.39,2.99,2.24,6.07,1.34,9.43-.78,2.92-2.39,5.25-4.73,7.09-2.34,1.84-5.01,1.98-7.75,1.24-2.43-.66-4.82-1.48-7.49-2.32.31,1.59,1.06,2.74,1.59,3.97,1.08,2.51,2.03,5.04,2,7.83-.07,7.31-7.56,13.48-14.75,12.16-3.62-.66-6.76-2.35-9.74-4.41-5.01-3.46-9.33-7.71-13.63-11.97-2.99-2.96-5.76-6.14-9.04-8.82-1.21-.99-2.23-2.16-2.39-4.15Z"/>
      <path d="M587.99,99c.04,1.79-.73,3.18-1.35,4.6-1.65,3.77-3.36,7.52-5.05,11.27-.14.32-.31.63-.45.95-.24.57-.71.76-1.27.69-.5-.07-.69-.5-.79-.94-.4-1.8-.6-3.63-.62-5.48-.05-5.16-2.04-9.54-5.5-13.29-5.69-6.17-13.55-7.3-20.76-2.99-2.13,1.27-4.02,2.84-5.61,4.73-5.15,6.13-8.98,12.97-10.54,20.9-.86,4.37-.84,8.74.81,12.96,2.82,7.2,9.33,10.09,15.8,10.06.81,0,1.27-.36,1.65-1.04,2.17-3.83,4-7.79,5.07-12.08.54-2.16.32-3.95-2.04-4.98-.78-.34-1.46-.97-1.72-1.9,3.15-.15,21.29,8.12,23.98,10.97-.88.67-1.81.45-2.72.29-2.71-.49-3.39-.28-4.76,1.98-.86,1.42-1.54,2.95-2.26,4.45-1.09,2.29-2.18,4.59-3.21,6.91-.4.91-.93,1.32-1.99,1.27-10.86-.46-20.91-3.38-29.7-9.95-6.97-5.21-11.03-12.17-11.58-20.94-.89-14.07,8.66-28.33,23.71-30.98,10.94-1.93,20.69.78,28.76,8.71,1.44,1.41,2.95,2.76,4.44,4.12,1.7,1.55,3.49,1.88,5.47.48.56-.39,1.16-.82,2.21-.78Z"/>
      <path d="M590.64,165.05c1.68.05,2.58.78,3.56,1.33,2.09,1.16,3.52,1.05,5.25-.56.96-.89,1.83-1.89,2.68-2.9,7.91-9.4,15.42-19.13,22.86-28.91,1.12-1.47,2.16-2.99,2.9-4.69.82-1.9.69-2.52-.82-3.96-.99-.95-2.05-1.83-2.32-3.6,1.72.78,2.94,1.74,4.18,2.64,10.77,7.87,21.08,16.34,31.46,24.71,1.11.9,1.37,1.65.49,2.79-2.45,3.2-4.86,6.44-7.34,9.62-.52.67-1.25,1.24-2.23,1.22-.53-.66-.19-1.36-.04-2,.22-.94.5-1.87.88-2.75,2.18-5.03.7-9.21-2.89-12.95-2.44-2.55-5.35-4.54-7.95-6.9-.7-.64-1.23-.5-1.81.03-.77.71-1.62,1.37-2.27,2.19-3.54,4.47-7.02,8.99-10.56,13.46-.65.81-.46,1.33.18,2.01,2.17,2.3,5.11,3,8.19,1.9,1.76-.63,3.26-1.68,4.78-2.74,1.14-.79,2.2-1.73,3.51-2.24.67.73-.02,1.2-.21,1.7-.24.65-.63,1.26-1.04,1.82-4.39,5.92-8.98,11.68-13.71,17.34-.65.77-1.32,1.64-2.54,1.89-.25-1.75.66-3.12,1.25-4.53,1.12-2.67,1.52-5.38.89-8.23-.21-.96-.59-1.84-1.2-2.6-1.87-2.37-3.31-2.46-5.17-.15-3.19,3.96-6.33,7.97-9.41,12.02-1.71,2.26-1.94,4.29-.4,6.03,3.99,4.49,8.69,7.91,14.91,8.56,3.05.32,5.92-.26,8.62-1.76,1.59-.88,3.16-1.86,5.1-1.89.05.89-.58,1.31-1.02,1.81-2.98,3.35-6.2,6.46-9.63,9.34-1.6,1.34-1.63,1.33-3.29.11-6.58-4.84-12.91-9.99-19.25-15.13-3.95-3.21-7.91-6.4-12.04-9.38-1.69-1.22-3.38-2.49-4.6-4.67Z"/>
      <path d="M444.52,60.72c3.82.37,7.47.66,11.09,1.08,9.41,1.09,18.83,2.1,28.19,3.56,1.73.27,3.44.67,5.17.96.92.15,1.38.49,1.27,1.55-.39,3.66-.67,7.34-1.05,11.01-.12,1.18-.34,2.38-1.26,3.41-1.31-.97-1.41-2.35-1.53-3.59-.54-5.37-3.58-8.56-8.51-10.26-3.6-1.24-7.31-1.77-11.09-2.01-1.33-.09-1.88.4-2.15,1.66-1.3,6.2-2.18,12.44-2.31,18.78-.05,2.22.04,2.24,2.15,2.2,5.01-.09,7.55-1.88,9.3-6.61.36-.98.64-2,.95-3,.18-.59.44-1.12,1.18-1.47.53.51.32,1.13.27,1.66-.86,8.38-1.74,16.76-2.63,25.13-.07.66.07,1.59-.91,1.64-1.14.05-1.02-1.01-1.13-1.72-.23-1.38-.36-2.78-.54-4.18-.21-1.58-.62-3.09-1.58-4.41-1.01-1.38-2.29-2.42-3.86-3.08-3.27-1.37-4.05-.9-4.59,2.62-.68,4.42-1.53,8.82-1.66,13.31-.03.96-.06,1.93-.01,2.9.13,2.81.61,3.72,3.23,4.4,5.83,1.51,11.63,1.53,17.19-1.19,3.02-1.48,5.3-3.68,6.62-6.84.56-1.34,1.17-2.75,2.92-2.89.34.39.24.74.15,1.07-1.3,4.73-2.66,9.45-3.89,14.2-.33,1.27-.87,1.68-2.17,1.55-9.51-.96-19.02-2.01-28.49-3.31-4.95-.68-9.9-1.35-14.8-2.37-.93-.19-1.87-.37-2.87-.95.96-1.24,2.2-1.34,3.51-1.23,2.96.23,3.18.11,3.95-2.75,1.03-3.82,1.57-7.73,2.11-11.64,1.37-9.99,2.71-19.99,4.06-29.99.08-.61.14-1.22.17-1.83.17-3.53-.64-4.67-4.04-5.77q-1.35-.44-2.41-1.59Z"/>
      <path d="M399.4,95.05c-.02-4.78-.7-8.95-1.21-13.12-.5-4.09-1.12-8.17-2.03-12.2-.15-.68-.35-1.36-.52-2.04-.61-2.39-2.12-3.72-4.59-4.05-1.17-.16-2.47-.08-3.72-1.47,5.99-1.41,11.76-1.73,17.62-2.16.03,1.34-.9,1.69-1.66,1.88-3.13.77-3.78,3.02-3.72,5.81.09,4.13.47,8.24,1.03,12.33,1.43,10.52,2.94,21.02,4.35,31.54.26,1.9.25,3.83.37,5.86-1.64.11-2.57-.84-3.48-1.72-10.9-10.45-21.79-20.92-32.69-31.37-1.84-1.76-3.71-3.49-5.61-5.18-.76-.68-1.65-1.21-2.78-2.03-.15,3.45.44,6.44.85,9.42.91,6.61,1.81,13.21,2.44,19.85.24,2.53.62,5.05,1.28,7.51.7,2.63,2.3,4.21,5.04,4.73,1.32.25,2.83.19,4.22,1.63-6.47,1.41-12.71,2.13-19.32,2.17.7-1.6,1.93-1.93,3.05-2.21,2.57-.63,3.52-2.37,3.63-4.81.13-2.65-.19-5.25-.54-7.87-1.39-10.35-2.75-20.7-4.12-31.05-.09-.69-.26-1.38-.42-2.06-.76-3.27-2.83-5.09-6.13-5.69-.87-.16-2.55.4-2.42-1.22.09-1.09,1.58-.79,2.42-.92,4.34-.65,8.7-1.12,13.04-1.7,2.32-.31,4.27.27,6.04,1.85,2.76,2.45,5.42,5,8.02,7.62,4.89,4.92,9.74,9.88,14.65,14.78,2.03,2.02,4.13,3.98,6.91,5.88Z"/>
      <path d="M116.95,230.78c4.13.72,13.74,6.09,15.69,8.87-1.96.27-3.71.1-5.46-.22-4.54-.83-8.73-.08-12.44,2.78-2.88,2.22-4.91,5.01-5.36,8.72-.63,5.24,3.4,8.85,8.5,7.61,2.58-.62,4.95-1.78,7.21-3.14,3.46-2.08,6.86-4.25,10.29-6.37,2.4-1.48,4.9-2.74,7.65-3.41,9.57-2.34,18.16,3.34,19.77,13.08,1.31,7.89-1.46,14.29-7.29,19.52-1.11.99-2.34,1.85-3.47,2.82-1.71,1.48-2.65,3.21-1.93,5.59.23.78.63,1.67-.06,2.81-6.29-2.58-12.29-5.66-17.86-10.39,2.18-.72,3.95-.4,5.66.04,5.36,1.38,10.26.33,14.81-2.63,2.96-1.92,5.15-4.47,6.1-7.96.57-2.1.58-4.18-.25-6.19-1.17-2.83-3.26-4.49-6.37-4.77-2.44-.22-4.68.42-6.85,1.48-3.16,1.55-6.02,3.59-8.94,5.53-3.6,2.38-7.29,4.55-11.58,5.48-2.78.6-5.58.72-8.35.04-6.04-1.48-10.16-6.29-11.04-12.66-.82-5.97.77-11.14,5.11-15.35,1.7-1.65,3.55-3.14,5.36-4.66,2.79-2.36,2.85-2.59,1.22-5.89-.07-.15-.07-.34-.14-.73Z"/>
      <path d="M280.68,686.76c-.82-.31-1.64-.6-2.45-.92-1.68-.66-3.13-.29-4.27,1.05-.8.93-1.51,1.94-2.17,2.97-5.92,9.13-11.44,18.5-16.49,28.13-3.88,7.39-1.81,13.05,5.81,16.46,4.93,2.21,9.39,1.51,13.38-2.14,2.03-1.85,3.69-4.01,5.09-6.35,4.39-7.39,9.13-14.57,13.04-22.23.4-.78.84-1.54,1.18-2.35,1.45-3.41.95-5.27-1.99-7.55-.27-.21-.65-.34-.83-.61-.18-.27-.31-.7-.22-.99.17-.59.71-.37,1.09-.26,1.37.37,2.6,1.06,3.76,1.85,2.32,1.58,4.72,3.03,7.24,4.27,1.5.74,2.84,1.68,3.88,3.36-1.12.3-1.99-.02-2.81-.34-2.91-1.15-5.09-.18-6.91,2.17-1.77,2.31-3.2,4.82-4.61,7.35-2.47,4.44-4.9,8.91-7.42,13.33-1.65,2.9-3.61,5.6-5.65,8.24-4.68,6.04-10.73,7.86-18,6.06-5.76-1.43-10.78-4.2-14.72-8.7-4.67-5.33-5.63-11.33-2.85-17.86.58-1.37,1.27-2.7,2.01-3.99,4.1-7.05,8.24-14.08,12.35-21.12,1.28-2.19,2.54-4.39,3.37-6.82.59-1.72.3-3.07-1.19-4.16-.92-.67-1.76-1.43-2.11-2.55.47-.85.94-.08,1.36-.03.5.06.99.35,1.44.61,6.21,3.62,12.42,7.24,18.61,10.88.67.4,1.34.84,1.8,1.5.09.58-.09.89-.73.73Z"/>
      <path d="M617.03,646.25c3.15.55,6.07,1.69,8.99,2.79,10.16,3.84,19.99,8.48,30.1,12.47,3.34,1.32,6.75,2.45,10.1,3.73,2.53.97,5.06,1.37,7.71.51.56-.18,1.2-.13,1.84-.19-.83,2.85-12.26,14.38-18.21,18.38.05-1.43,1-2.29,1.56-3.31,1.19-2.18.99-3.24-1.13-4.6-2.69-1.72-5.77-2.52-8.75-3.52-.68-.23-1.16.09-1.64.53-4.04,3.77-8.08,7.55-12.14,11.3-.65.6-.9,1.19-.73,2.08.51,2.61,1.29,5.11,2.81,7.31,1.91,2.76,4.06,3.17,7.02,1.42.45-.27.87-.58,1.3-.88.37-.26.72-.52,1.13-.05.36.41.24.84-.01,1.2-.45.65-.91,1.3-1.46,1.85-2.4,2.43-4.83,4.85-7.28,7.24-.93.91-1.95,1.73-3.38,2.07-.33-1.13-.1-2.15.15-3.13.68-2.65.37-5.17-.55-7.73-4.48-12.54-9.24-24.97-14.12-37.36-1.22-3.1-2.28-6.25-3.11-9.49-.21-.83-.61-1.64-.21-2.62Z"/>
      <path d="M549.76,758.06c-3.32,2.43-21.25,7.36-24.58,6.73.16-1.22,1.14-1.39,2.04-1.68,2.63-.86,3.03-1.6,1.82-4.18-1.35-2.88-3.51-5.23-5.54-7.64-.63-.75-1.52-.74-2.43-.61-5.59.81-10.9,2.56-16.15,4.57-.92.35-1.28.95-1.42,1.94-.37,2.53-.53,5.07-.39,7.61.17,3,.94,3.64,3.92,3.54,1.35-.05,2.78-.43,4.27.83-5.43,2.86-11.13,3.93-16.99,5.06-.16-1.41.47-2.19,1.33-2.8,1.69-1.19,2.45-2.88,2.91-4.83,1.28-5.47,2.13-11.02,2.94-16.57,1.66-11.37,3.19-22.76,4.77-34.14.16-1.14.46-2.23,1.29-3.34,1.55.69,2.51,2.01,3.53,3.28,8.07,9.95,16.12,19.92,24.26,29.82,2.45,2.98,5.18,5.73,7.77,8.59,1.39,1.53,2.95,2.74,5.09,3,.53.07,1.01.29,1.56.81Z"/>
      <path d="M442.09,726.16c-.17-1.45.69-1.54,1.63-1.64,2.44-.26,4.88-.57,7.32-.84,5.06-.55,10.12-1.1,15.18-1.61,1.26-.13,2.56-.32,4,.33-.79.86-1.62,1-2.43,1.24-3.1.95-3.71,1.79-3.77,5.11-.08,5.46.75,10.85,1.4,16.25.7,5.83,1.77,11.63,1.97,17.52.06,1.58.04,3.17-.11,4.73-.43,4.35-2.36,7.9-6.13,10.22-6.12,3.76-12.57,4.12-19.13,1.3-3.12-1.34-5.34-3.68-6.15-7.1-1.23-5.22,2.88-9.27,7.91-7.84,2.67.76,3.79,2.37,3.36,5.1-.26,1.64-.75,3.24-1.14,4.86-.52,2.15-.47,2.25,1.62,3.09,3.96,1.59,6.85-.17,7.14-4.46.28-4.05-.22-8.08-.76-12.07-.88-6.53-1.18-13.11-1.99-19.64-.49-3.92-1.03-7.82-2.27-11.6-.61-1.86-1.6-3-3.78-2.8-1.28.11-2.6-.09-3.87-.15Z"/>
      <path d="M755.35,285.17c-.46-.3-.75-.75-.93-1.24-.88-2.37-2.58-3.11-5.64-2.38-1.61.38-3.14,1.09-4.67,1.74-10.97,4.68-21.66,9.95-32.45,15.03-1.34.63-2.63,1.43-3.82,2.31-2.2,1.62-2.38,2.47-1.29,5.18.4,1,.65,1.92.14,2.91-1.05-.1-1.27-.88-1.56-1.44-3.9-7.56-7.1-15.45-10.66-23.17-.17-.37-.23-.85.18-1.23,1.07,0,1.37.93,1.84,1.62,2.34,3.43,3.3,3.77,7.22,2.23,6.69-2.63,13.16-5.78,19.68-8.79,5.65-2.6,11.31-5.18,16.97-7.78.64-.29,1.27-.6,1.88-.95,2.56-1.5,3.22-3,2.64-5.93-.15-.77-.35-1.53-.48-2.31-.04-.24.1-.5.15-.74.11-.03.19-.07.28-.08.08,0,.18-.02.25.02.51.24.75.72.95,1.2,3.23,7.57,7.32,14.76,10.01,22.57.27.69.32,1.26-.7,1.22Z"/>
      <path d="M393.46,724.43c11.68-.39,25.09.12,27.08,1.05-1.01,1.09-2.31,1.14-3.59,1.27-2.74.28-2.72.3-3.46,3.02-.88,3.24-1.21,6.58-1.36,9.89-.46,10.61-1.21,21.21-1.27,31.84,0,1.57-.05,3.16.33,4.71.29,1.19.9,1.85,2.21,1.71,1.45-.16,2.79.13,4.02,1.24-1.07,1.28-2.49,1.06-3.8.99-3.94-.22-7.88-.53-11.82-.74-3.06-.16-6.15.05-9.19-.46-1.12-.19-2.24-.33-3.24-1.58,1.48-.22,2.73-.4,3.99-.58,2.24-.32,2.83-.84,3.34-3.05.62-2.66.71-5.4.88-8.11.63-9.99,1.15-19.98,1.68-29.97.1-1.93.12-3.87,0-5.79-.15-2.72-.83-3.48-3.44-4.24-.73-.21-1.49-.36-2.38-1.2Z"/>
      <path class="cls-24" d="M755.35,285.17c.58-.21.55-.77.7-1.22.33.2.44.53.49.87.06.4.39.98-.09,1.16-.55.21-.9-.31-1.1-.81Z"/>
      <path class="cls-32" d="M184.4,159.55c.54.2.95.54,1.16,1.1-.57.2-.53.73-.66,1.17-.49-.37-.56-.92-.65-1.46-.12-.3-.07-.57.16-.81Z"/>
      <path class="cls-27" d="M360.26,726.66c.18-.51.47-.89,1.07-.97.29.8.08,1.5-.42,2.13-.16-.42-.12-.95-.65-1.17Z"/>
      <path class="cls-4" d="M412.93,175.86c.04.28.09.55.13.83-.21.5-.55.84-1.12.91-.02-.78.43-1.29.99-1.73Z"/>
      <path class="cls-33" d="M280.68,686.76c.24-.24.49-.49.73-.73.5.16,1.03.62.73.99-.37.46-1.04.26-1.47-.25Z"/>
      <path class="cls-2" d="M234,178.21c-.24-.24-.47-.47-.71-.71.25-.38.63-.67,1-.3.37.37.08.75-.29,1.01Z"/>
      <path class="cls-7" d="M154.72,191.84c-.39-.2-.48-.46.02-.55.48-.09.99-.02,1.34.43-.45.04-.9.08-1.35.12Z"/>
      <path class="cls-29" d="M411.95,177.56c0,.32-.2.51-.48.62-.02-.34.06-.61.48-.62Z"/>
      <path class="cls-15" d="M485.27,211.93c-2.49,5.33-5.44,10.41-8.24,15.58-12.73,23.45-26.13,46.51-39.98,69.31-3.55,5.85-6.95,11.79-10.02,17.92-.78,1.55-1.61,3.09-2.07,5.18,29.01.66,57.83.43,86.72,1.11.06,2.23-.69,4.2-1.42,6.14-1.66,4.39-4.22,8.27-7.13,11.93-3.18,4-6.79,7.58-10.4,11.18-11.42,11.43-23.45,22.23-35.28,33.23-16.65,15.49-33.3,30.99-49.99,46.43-12.83,11.86-25.73,23.65-38.6,35.47-.91.83-1.91,1.59-2.66,2.55-2.54,3.28-5.95,5.42-9.52,7.33-9.36,5.01-18.73,9.98-28.1,14.98-.39.21-.76.44-1.24.41-.43-.71.03-1.33.21-1.98,1.54-5.4,3.45-10.68,5.55-15.89,1.56-3.86,3.93-7.24,6.36-10.57,8.97-12.28,18.76-23.89,28.62-35.45,12.71-14.89,25.53-29.69,38.3-44.54,2.41-2.8,4.72-5.67,6.84-8.69.75-1.06,1.45-2.17,2.41-3.61-1.99-.16-3.61-.43-5.22-.4-17.03.24-34.06.14-51.09.09-2.54,0-5.09.28-7.63.24-3.4-.06-4.23-.89-4.04-4.33.34-5.97,2.16-11.54,5.14-16.69,4.05-7.02,9.02-13.39,14.26-19.55,14.7-17.25,29.86-34.08,45.69-50.3,10.43-10.68,21.45-20.75,32.48-30.81,6.62-6.03,12.87-12.44,19.44-18.53,6.63-6.14,13.3-12.25,20-18.32.56-.15.76.04.6.6Z"/>
      <path class="cls-12" d="M485.12,210.72c.18-.37.46-.75.86-.61.37.13.25.49-.05.71-.3.24-.57.21-.8-.1Z"/>
      <path class="cls-23" d="M485.12,210.72c.27.03.54.07.8.1-.13.42-.2.88-.66,1.11-.2-.2-.4-.4-.6-.6.15-.2.3-.41.45-.61Z"/>
      <path class="cls-6" d="M184.4,159.55c-.05.27-.1.54-.16.81-.36-.29-.53-.64-.18-1.03.12-.13.3,0,.34.22Z"/>
      <path class="cls-9" d="M696.6,224.56c-2.22.07-4.13-.65-5.78-2.12-2.11-1.88-3.92-4-5.26-6.51-.39-.73-.58-1.38.34-2,5.43-3.7,10.44-7.99,16.01-11.48,3.16-1.98,2.6-2.02,4.93.89,1.71,2.14,2.98,4.52,3.39,7.3.51,3.44-.39,6.44-2.72,8.97-2.93,3.19-6.61,4.8-10.92,4.96Z"/>
      <path class="cls-9" d="M210.9,666.73c5.71,3.42,8.08,10.68,5.17,16.64-3.77,7.72-12.47,8.05-17.5,4.81-3.65-2.35-4.08-5.44-1.03-8.5,4.39-4.4,8.92-8.66,13.35-12.94Z"/>
      <path class="cls-9" d="M223.58,669.81c-2.75-.12-5.06-1.37-7.15-3.01-3.49-2.73-3.73-1.85-.68-5.61,3.44-4.24,7.27-8.1,11.65-11.39,1.68-1.27,1.74-1.23,2.94.59,1.06,1.61,2.16,3.2,3.09,4.89,1.8,3.27,1.45,6.4-.85,9.33-1.15,1.46-2.45,2.75-4.03,3.74-1.52.95-3.14,1.55-4.97,1.47Z"/>
      <path class="cls-9" d="M644.69,670.88c-3.57,4.16-7.09,7.79-11.04,11.04-1.87-3.08-6.34-14.61-7.12-18.47,6.14,2.22,11.99,4.57,18.15,7.43Z"/>
      <path class="cls-9" d="M520.12,747.67c-5.37,1.42-10.39,2.74-15.72,4.14.73-6.82,1.19-13.23,3-20.12,4.61,5.37,8.94,10.22,12.72,15.98Z"/>
    </g>
  </g>
</svg>